<?xml version="1.0" standalone="no"?>
<!DOCTYPE svg PUBLIC "-//W3C//DTD SVG 20010904//EN"
 "http://www.w3.org/TR/2001/REC-SVG-20010904/DTD/svg10.dtd">
<svg version="1.0" xmlns="http://www.w3.org/2000/svg"
 width="700.000000pt" height="700.000000pt" viewBox="0 0 700.000000 700.000000"
 preserveAspectRatio="xMidYMid meet">
<metadata>
Created by potrace 1.14, written by Peter Selinger 2001-2017
</metadata>
<g transform="translate(0.000000,700.000000) scale(0.100000,-0.100000)"
fill="#000000" stroke="none">
<path d="M35 4404 l0 -1269 590 -1 c325 0 595 1 600 3 7 2 10 242 9 696 l-1
693 346 -1 c441 -3 594 -16 805 -70 185 -46 303 -109 423 -226 76 -74 118
-104 131 -95 14 8 67 120 106 224 82 213 190 401 397 688 l87 122 -21 19 c-12
11 -44 35 -72 54 -27 19 -52 37 -55 40 -3 3 -53 38 -111 77 -279 187 -511 256
-969 287 -47 4 -112 8 -145 11 -33 3 -524 8 -1090 11 l-1030 5 0 -1268z"/>
<path d="M5148 5665 c-2 -2 -39 -6 -83 -10 -44 -4 -82 -8 -85 -10 -3 -2 -26
-6 -50 -10 -25 -4 -81 -15 -125 -26 -44 -11 -87 -22 -96 -24 -123 -28 -345
-129 -527 -240 -141 -85 -324 -241 -472 -401 -173 -186 -349 -474 -426 -695
-23 -66 -66 -229 -78 -291 -2 -13 -11 -61 -19 -108 -9 -47 -19 -112 -22 -145
-3 -33 -8 -71 -10 -85 -3 -14 -7 -52 -11 -85 -3 -33 -8 -69 -10 -80 -2 -11 -7
-36 -10 -55 -16 -96 -48 -232 -69 -296 -103 -307 -443 -565 -855 -650 -19 -4
-217 -9 -440 -11 -223 -2 -432 -4 -465 -6 l-60 -2 0 -567 c0 -376 3 -569 10
-571 18 -6 1028 0 1109 7 66 6 148 20 304 52 70 14 277 90 377 138 301 144
531 319 751 572 32 38 62 73 66 79 4 5 18 24 32 40 170 214 343 615 381 880 3
22 9 54 12 70 3 17 7 39 9 50 2 19 8 60 19 130 2 17 7 53 10 80 4 28 8 59 10
70 14 86 19 112 50 260 41 199 155 393 298 511 27 21 55 45 63 53 72 66 253
155 379 184 107 26 123 27 230 27 268 0 475 -84 744 -304 52 -42 97 -75 102
-74 10 3 561 551 654 650 35 37 75 86 89 110 70 120 31 174 -271 375 -421 280
-849 411 -1345 410 -92 0 -169 -1 -170 -2z"/>
<path d="M6168 2837 c-27 -25 -175 -144 -223 -178 -262 -188 -602 -244 -887
-148 -134 45 -218 91 -353 195 -44 33 -103 77 -132 97 l-52 37 -13 -23 c-24
-42 -50 -102 -80 -182 -69 -187 -180 -391 -344 -632 -112 -164 -122 -213 -60
-274 84 -82 358 -232 561 -308 88 -32 302 -87 379 -96 27 -3 52 -8 56 -10 10
-6 200 -18 305 -18 195 -1 366 19 585 68 37 8 197 56 215 64 11 5 56 24 100
41 141 57 256 120 433 237 184 122 284 206 300 251 14 42 4 82 -35 142 -30 46
-721 750 -737 750 -2 0 -11 -6 -18 -13z"/>
</g>
</svg>
