<?xml version="1.0" standalone="no"?>
<!DOCTYPE svg PUBLIC "-//W3C//DTD SVG 20010904//EN"
 "http://www.w3.org/TR/2001/REC-SVG-20010904/DTD/svg10.dtd">
<svg version="1.0" xmlns="http://www.w3.org/2000/svg"
 width="700.000000pt" height="700.000000pt" viewBox="0 0 700.000000 700.000000"
 preserveAspectRatio="xMidYMid meet">
<metadata>
Created by potrace 1.11, written by Peter Selinger 2001-2013
</metadata>
<g transform="translate(0.000000,700.000000) scale(0.100000,-0.100000)"
fill="#000000" stroke="none">
<path d="M980 4121 l0 -1091 425 0 425 0 0 625 0 625 229 0 c261 0 390 -11
542 -45 327 -73 551 -248 631 -495 29 -92 36 -278 14 -391 -43 -214 -176 -383
-381 -484 -187 -92 -386 -125 -765 -125 l-260 0 0 -476 0 -476 333 5 c278 4
350 8 439 25 469 89 815 262 1082 542 l76 80 83 -83 c182 -185 424 -327 681
-401 201 -59 294 -71 541 -71 204 0 242 3 333 23 283 64 509 178 680 345 79
78 146 163 137 176 -10 17 -556 422 -565 419 -4 -2 -30 -30 -58 -64 -90 -109
-236 -202 -377 -239 -143 -39 -346 -29 -490 22 -228 82 -393 239 -510 486 -79
167 -90 227 -90 492 1 223 2 233 29 320 108 351 332 582 646 666 117 32 337
32 451 1 126 -34 276 -123 343 -203 l25 -29 263 216 c145 119 265 218 267 220
2 2 -36 44 -85 93 -97 96 -203 171 -329 231 -415 197 -1007 182 -1467 -38
-156 -75 -278 -161 -407 -288 l-115 -112 -95 89 c-265 251 -588 393 -1076 470
-134 22 -173 23 -872 26 l-733 4 0 -1090z"/>
</g>
</svg>
