<?xml version="1.0" standalone="no"?>
<!DOCTYPE svg PUBLIC "-//W3C//DTD SVG 20010904//EN"
 "http://www.w3.org/TR/2001/REC-SVG-20010904/DTD/svg10.dtd">
<svg version="1.0" xmlns="http://www.w3.org/2000/svg"
 width="700.000000pt" height="700.000000pt" viewBox="0 0 700.000000 700.000000"
 preserveAspectRatio="xMidYMid meet">
<metadata>
Created by potrace 1.14, written by Peter Selinger 2001-2017
</metadata>
<g transform="translate(0.000000,700.000000) scale(0.100000,-0.100000)"
fill="#000000" stroke="none">
<path d="M652 4223 l3 -1198 460 0 460 0 3 823 2 824 318 -5 c347 -5 394 -11
571 -76 463 -169 698 -590 653 -1170 -35 -454 -218 -754 -556 -911 -180 -84
-335 -110 -708 -117 l-278 -6 0 -354 0 -355 353 5 c303 3 369 7 476 26 480 84
854 262 1152 548 l85 82 73 -82 c328 -369 773 -569 1321 -594 443 -19 879 137
1157 415 74 74 163 183 163 201 0 5 -140 119 -312 252 l-312 243 -20 -29
c-147 -201 -333 -314 -571 -346 -235 -31 -481 40 -670 192 -188 153 -323 387
-380 664 -22 107 -22 444 1 554 85 418 341 720 701 827 128 38 319 44 458 15
146 -30 261 -89 367 -190 l83 -78 288 244 c158 134 287 249 287 254 0 6 -46
57 -102 114 -252 252 -583 387 -993 402 -349 13 -652 -50 -950 -198 -181 -89
-302 -176 -445 -320 l-116 -116 -109 106 c-303 293 -702 457 -1285 528 -110
13 -271 17 -883 20 l-747 5 2 -1199z"/>
</g>
</svg>
