<?xml version="1.0" standalone="no"?>
<!DOCTYPE svg PUBLIC "-//W3C//DTD SVG 20010904//EN"
 "http://www.w3.org/TR/2001/REC-SVG-20010904/DTD/svg10.dtd">
<svg version="1.0" xmlns="http://www.w3.org/2000/svg"
 width="792.000000pt" height="792.000000pt" viewBox="0 0 792.000000 792.000000"
 preserveAspectRatio="xMidYMid meet">
<metadata>
Created by potrace 1.14, written by Peter Selinger 2001-2017
</metadata>
<g transform="translate(0.000000,792.000000) scale(0.100000,-0.100000)"
fill="#000000" stroke="none">
<path d="M0 5013 l0 -1449 685 0 685 0 0 789 c0 434 2 792 4 796 9 15 794 3
941 -15 22 -2 56 -6 75 -8 119 -13 295 -50 395 -83 28 -10 52 -18 55 -18 3 0
27 -11 54 -23 27 -12 51 -22 53 -22 17 0 150 -98 199 -146 78 -77 145 -134
159 -134 18 0 70 98 120 225 55 140 129 295 198 415 53 94 165 267 185 289 7
7 31 41 54 75 23 33 44 63 47 66 3 3 24 31 45 63 l39 58 -29 24 c-16 14 -37
27 -46 30 -10 4 -18 11 -18 16 0 5 -6 9 -14 9 -8 0 -16 4 -18 8 -1 4 -41 34
-88 67 -47 33 -91 65 -98 72 -7 7 -18 13 -23 13 -5 0 -19 9 -30 19 -50 46
-356 181 -449 197 -14 3 -34 8 -45 11 -11 4 -22 7 -25 8 -3 1 -27 5 -55 10
-27 5 -54 10 -60 11 -5 1 -13 3 -17 4 -5 1 -16 3 -25 4 -43 5 -150 18 -173 21
-52 8 -188 18 -420 32 -47 3 -597 7 -1222 10 l-1138 5 0 -1449z"/>
<path d="M5849 6455 c-2 -2 -36 -6 -74 -9 -39 -3 -83 -8 -100 -11 -138 -24
-210 -39 -272 -56 -40 -11 -80 -22 -90 -24 -44 -11 -168 -56 -177 -65 -5 -5
-20 -10 -33 -10 -13 0 -23 -4 -23 -10 0 -5 -7 -10 -15 -10 -18 0 -242 -115
-266 -136 -8 -8 -19 -14 -24 -14 -7 0 -234 -156 -245 -169 -3 -3 -27 -24 -55
-46 -142 -114 -359 -348 -458 -493 -21 -31 -42 -59 -45 -62 -22 -15 -222 -382
-222 -406 0 -3 -6 -20 -14 -37 -27 -58 -81 -243 -102 -347 -29 -147 -42 -217
-49 -270 -12 -91 -17 -139 -20 -170 -5 -50 -13 -109 -20 -155 -5 -36 -10 -65
-30 -182 -27 -160 -115 -403 -165 -453 -3 -3 -23 -27 -44 -55 -33 -42 -85 -95
-187 -190 -9 -8 -21 -15 -27 -15 -5 0 -12 -4 -14 -9 -4 -10 -103 -77 -168
-113 -108 -58 -279 -121 -395 -144 -11 -2 -31 -6 -45 -9 -57 -12 -228 -17
-650 -18 l-445 -2 -3 -653 -2 -653 647 4 c357 3 659 7 673 10 14 3 50 9 80 12
119 15 419 94 505 135 11 5 49 21 85 35 36 15 69 31 74 36 6 5 18 9 27 9 10 0
19 3 21 8 2 4 21 16 43 27 22 11 69 36 104 57 34 21 65 38 67 38 8 0 219 154
279 204 143 118 347 330 415 431 8 13 39 58 69 100 29 43 75 115 100 159 45
78 131 250 131 262 0 3 7 20 15 37 46 101 113 351 140 522 2 11 6 36 10 55 7
35 11 62 20 135 3 22 7 49 9 60 2 11 7 45 10 76 4 31 8 66 11 77 4 21 14 81
20 122 4 24 8 45 20 100 3 14 7 36 10 49 16 85 75 251 113 321 33 59 80 126
117 169 60 68 195 185 236 205 11 5 19 13 19 18 0 4 5 8 11 8 6 0 25 10 42 22
68 48 261 126 355 143 163 28 348 24 485 -11 125 -31 331 -118 367 -154 3 -3
32 -23 64 -45 33 -22 67 -47 75 -55 9 -9 50 -43 91 -75 41 -33 77 -63 78 -67
2 -5 10 -8 19 -8 23 0 803 786 847 853 45 70 55 122 32 171 -20 43 -98 115
-202 186 -43 30 -80 58 -82 62 -2 4 -8 8 -14 8 -6 0 -25 10 -42 23 -57 43
-217 138 -315 187 -87 44 -313 137 -351 145 -8 2 -46 13 -84 25 -37 12 -98 28
-135 36 -36 8 -75 17 -86 20 -11 2 -36 7 -55 9 -39 6 -75 13 -75 15 0 0 -20 3
-45 6 -25 2 -65 7 -90 10 -51 7 -476 15 -481 9z"/>
<path d="M7013 3222 c-11 -9 -35 -28 -53 -42 -19 -14 -50 -40 -69 -57 -20 -18
-39 -33 -42 -33 -3 0 -17 -10 -31 -22 -33 -29 -73 -59 -107 -78 -14 -8 -28
-18 -31 -21 -9 -12 -154 -81 -219 -106 -188 -71 -429 -87 -616 -43 -175 42
-346 124 -490 237 -16 13 -35 27 -40 31 -6 4 -30 23 -55 42 -56 44 -124 90
-133 90 -11 0 -54 -92 -103 -218 -50 -132 -60 -154 -117 -267 -67 -133 -74
-146 -129 -233 -16 -24 -28 -46 -28 -49 0 -5 -20 -35 -147 -215 -18 -26 -33
-50 -33 -52 0 -3 -10 -22 -22 -43 -12 -20 -23 -42 -25 -48 -1 -5 -4 -21 -7
-34 -18 -81 81 -162 414 -338 117 -63 313 -141 420 -168 8 -2 43 -11 77 -20
71 -18 72 -18 173 -35 41 -6 86 -14 100 -16 144 -25 552 -25 720 1 14 2 43 6
65 10 43 6 74 12 115 21 14 3 36 7 50 10 48 10 145 36 190 51 25 8 52 16 61
18 8 2 51 17 95 34 43 17 85 31 92 31 6 0 12 4 12 8 0 5 6 9 13 9 12 0 178 80
246 119 91 51 423 278 472 323 100 89 111 153 46 252 -54 83 -84 114 -565 591
-272 271 -280 277 -299 260z"/>
</g>
</svg>
