<?xml version="1.0" encoding="UTF-8"?>
<svg width="459px" height="307px" viewBox="0 0 459 307" version="1.1" xmlns="http://www.w3.org/2000/svg" xmlns:xlink="http://www.w3.org/1999/xlink">
    <!-- Generator: Sketch 64 (93537) - https://sketch.com -->
    <title>GotNext</title>
    <desc>Created with Sketch.</desc>
    <defs>
        <linearGradient x1="50%" y1="0%" x2="50%" y2="100%" id="linearGradient-1">
            <stop stop-color="#0F2027" offset="0%"></stop>
            <stop stop-color="#203A43" offset="49.8310811%"></stop>
            <stop stop-color="#2C5364" offset="100%"></stop>
        </linearGradient>
    </defs>
    <g id="GotNext" stroke="none" stroke-width="1" fill="none" fill-rule="evenodd">
        <g id="Group">
            <rect id="Rectangle" fill="url(#linearGradient-1)" x="0" y="0" width="459" height="307"></rect>
            <path d="M126.3885,136.878 C131.6525,136.878 135.4595,138.382 138.4205,141.343 L138.4205,141.343 L135.8825,143.834 C133.6265,141.437 130.4775,139.98 126.3885,139.98 C117.8345,139.98 112.7115,146.701 112.7115,154.362 C112.7115,162.023 117.8345,168.744 126.3885,168.744 C129.8195,168.744 133.1095,167.804 135.6005,166.394 L135.6005,166.394 L135.6005,155.255 L127.6575,155.255 L127.6575,152.153 L138.9845,152.153 L138.9845,168.462 C135.2715,170.671 130.4305,171.846 126.3885,171.846 C116.4715,171.846 109.0455,164.467 109.0455,154.362 C109.0455,144.257 116.4715,136.878 126.3885,136.878 Z M162.9545,136.878 C172.8715,136.878 180.2975,144.257 180.2975,154.362 C180.2975,164.467 172.8715,171.846 162.9545,171.846 C153.0375,171.846 145.6115,164.467 145.6115,154.362 C145.6115,144.257 153.0375,136.878 162.9545,136.878 Z M208.8735,137.724 L208.8735,140.826 L197.7345,140.826 L197.7345,171 L194.3505,171 L194.3505,140.826 L183.2115,140.826 L183.2115,137.724 L208.8735,137.724 Z M231.3395,137.724 L251.1735,165.924 L251.2675,165.924 L251.2675,137.724 L254.6515,137.724 L254.6515,171 L250.4215,171 L230.5875,142.518 L230.4935,142.518 L230.4935,171 L227.1095,171 L227.1095,137.724 L231.3395,137.724 Z M284.3085,137.724 L284.3085,140.826 L267.0595,140.826 L267.0595,152.153 L283.1805,152.153 L283.1805,155.255 L267.0595,155.255 L267.0595,167.898 L284.8725,167.898 L284.8725,171 L263.6755,171 L263.6755,137.724 L284.3085,137.724 Z M352.5525,137.724 L352.5525,140.826 L341.4135,140.826 L341.4135,171 L338.0295,171 L338.0295,140.826 L326.8905,140.826 L326.8905,137.724 L352.5525,137.724 Z M316,160 L323,171 L309,171 L316,160 Z M299.500094,138 L309,154.288 L309,154.71 L299.500094,171 L290,171 L290,170.788 L299.500094,154.5 L299.499,154.499 L290,138.211 L290,138 L299.500094,138 Z M162.9545,139.98 C154.4005,139.98 149.2775,146.701 149.2775,154.362 C149.2775,162.023 154.4005,168.744 162.9545,168.744 C171.5085,168.744 176.6315,162.023 176.6315,154.362 C176.6315,146.701 171.5085,139.98 162.9545,139.98 Z M323,138 L316,149 L309,138 L323,138 Z" id="Combined-Shape" fill="#FFFFFF"></path>
        </g>
    </g>
</svg>