<!--?xml version="1.0" encoding="UTF-8"?-->
<svg width="179px" height="114px" viewBox="0 0 179 114" version="1.1" xmlns="http://www.w3.org/2000/svg" xmlns:xlink="http://www.w3.org/1999/xlink" style="">
    <title>Logo</title>
    <g id="Page-1" stroke="none" stroke-width="1" fill="none" fill-rule="evenodd">
        <g id="r" transform="translate(-10.000000, -43.000000)" fill-rule="nonzero" stroke="#3A3A3A" stroke-width="1.5">
            <g id="Logo" transform="translate(11.000000, 44.000000)">
                <g id="Group" transform="translate(88.500000, 56.000000) scale(-1, 1) rotate(-180.000000) translate(-88.500000, -56.000000) ">
                    <path d="M0,79.5513776 L0,47.1077943 L15.3080237,47.1077943 L30.6160473,47.1077943 L30.6160473,64.9199576 L30.6160473,82.732121 L42.4797657,82.732121 C56.3845538,82.732121 65.8245018,80.314756 70.1617751,75.7344854 C71.8201444,73.9532691 73.4785136,72.553742 73.9887811,72.553742 C74.3714817,72.553742 75.7747172,75.3527962 77.0503858,78.9152289 C78.3260544,82.3504318 81.515226,88.3302295 84.321697,92.2743514 L89.2968047,99.271987 L83.9389964,103.088879 C73.4785136,110.722663 65.8245018,111.994961 31.1263148,111.994961 L0,111.994961 L0,79.5513776 Z" id="Path" class="ZOXjMaKa_0"></path>
                    <path d="M118.126916,109.450366 C102.691325,104.615636 88.7865373,91.2565135 83.0460284,75.8617152 C81.6427929,72.044823 80.1119905,64.5382684 79.6017231,58.9401599 C79.0914556,53.4692812 77.6882201,46.9805645 76.4125515,44.30874 C72.0752781,35.6571178 61.1045278,29.2956309 50.5164781,29.2956309 L30.6332828,29.2956309 L30.6332828,14.7948029 L30.6332828,0.0327910629 L54.8537515,0.0327910629 C74.6266154,0.0327910629 94.2719124,12.6285352 103.456727,31.204077 C106.390764,37.1838747 107.921567,42.7819832 109.069669,51.9425243 C110.983172,66.3194848 112.896675,70.7725256 119.402585,76.1161746 C129.097666,84.1316481 142.109486,84.1316481 152.314835,76.1161746 L157.162376,72.1720527 L167.877993,82.8593508 C180.124412,94.9461759 180.124412,94.1827975 167.367725,102.70719 C153.33537,111.867731 134.200341,114.539556 118.126916,109.450366 Z" id="Path" class="ZOXjMaKa_1"></path>
                    <path d="M111.748573,33.112523 C110.472904,29.6773201 107.283733,23.6975224 104.604828,19.8806303 C99.1194532,12.1196162 99.1194532,12.1196162 108.686968,6.64873746 C126.036062,-3.1479524 150.146199,-2.00288475 167.367725,9.32056197 C180.124412,17.8449544 180.124412,17.081576 167.877993,29.1684012 L157.162376,39.8556992 L152.314835,35.9115773 C142.237053,27.8961038 129.607934,27.8961038 119.657718,35.7843476 C117.106381,37.8200234 114.810178,39.47401 114.555044,39.47401 C114.29991,39.47401 113.024241,36.6749557 111.748573,33.112523 Z" id="Path" class="ZOXjMaKa_2"></path>
                </g>
            </g>
        </g>
    </g>
<style data-made-with="vivus-instant">.ZOXjMaKa_0{stroke-dasharray:301 303;stroke-dashoffset:302;animation:ZOXjMaKa_draw_0 3000ms linear 0ms infinite,ZOXjMaKa_fade 3000ms linear 0ms infinite;}.ZOXjMaKa_1{stroke-dasharray:433 435;stroke-dashoffset:434;animation:ZOXjMaKa_draw_1 3000ms linear 0ms infinite,ZOXjMaKa_fade 3000ms linear 0ms infinite;}.ZOXjMaKa_2{stroke-dasharray:194 196;stroke-dashoffset:195;animation:ZOXjMaKa_draw_2 3000ms linear 0ms infinite,ZOXjMaKa_fade 3000ms linear 0ms infinite;}@keyframes ZOXjMaKa_draw{100%{stroke-dashoffset:0;}}@keyframes ZOXjMaKa_fade{0%{stroke-opacity:1;}93.33333333333333%{stroke-opacity:1;}100%{stroke-opacity:0;}}@keyframes ZOXjMaKa_draw_0{0%{stroke-dashoffset: 302}55.55555555555555%{ stroke-dashoffset: 0;}100%{ stroke-dashoffset: 0;}}@keyframes ZOXjMaKa_draw_1{13.88888888888889%{stroke-dashoffset: 434}69.44444444444443%{ stroke-dashoffset: 0;}100%{ stroke-dashoffset: 0;}}@keyframes ZOXjMaKa_draw_2{27.77777777777778%{stroke-dashoffset: 195}83.33333333333334%{ stroke-dashoffset: 0;}100%{ stroke-dashoffset: 0;}}</style></svg>